# xmcd CD database file
#
# Track frame offsets:
#	150
#	14602
#	27435
#	44000
#	53115
#	63722
#	75007
#	86087
#	97704
#	109295
#	119657
#	133287
#	147185
#	161577
#	172312
#	187872
#	199565
#	210495
#	223395
#	234820
#	248157
#	260822
#	273270
#	286422
#	300660
#	314022
#	326802
#
# Disc length: 4542 seconds
#
# Revision: 0
# Processed by: cddbd v1.5.2PL0 Copyright (c) Steve Scherf et al.
# Submitted via: CDex 1.70beta2
#
DISCID=9a11bc1b
DTITLE=B.B. King - B.B. Boogie - The RPM years, 1950-1953
DYEAR=2003
DGENRE=Blues
TTITLE0=B.B. Boogie
TTITLE1=Mistreated Woman
TTITLE2=The Other Night Blues
TTITLE3=My Baby's Gone
TTITLE4=Don't You Want a Man Like Me
TTITLE5=She's Dynamite
TTITLE6=B.B. Blues
TTITLE7=Hard Workin' Woman
TTITLE8=She's a Mean Woman
TTITLE9=That Ain't the Way to Do It
TTITLE10=3 O'Clock Blues
TTITLE11=You Know I Love You
TTITLE12=She Don't Move Me No More
TTITLE13=Fine Lookin' Woman
TTITLE14=My Own Fault, Darlin' (aka It's My Fault)
TTITLE15=Shake It Up and Go
TTITLE16=Gotta Find My Baby
TTITLE17=Some Day, Somewhere
TTITLE18=You Didn't Want Me
TTITLE19=Story from My Heart and Soul
TTITLE20=Boogie Woogie Woman
TTITLE21=Highway Bound
TTITLE22=Neighborhood Affair
TTITLE23=Why Did You Leave Me
TTITLE24=Woke Up This Morning (My Baby She Was Gone)
TTITLE25=Please Love Me
TTITLE26=Blind Love
EXTD=YEAR: 2003
EXTT0=
EXTT1=
EXTT2=
EXTT3=
EXTT4=
EXTT5=
EXTT6=
EXTT7=
EXTT8=
EXTT9=
EXTT10=
EXTT11=
EXTT12=
EXTT13=
EXTT14=
EXTT15=
EXTT16=
EXTT17=
EXTT18=
EXTT19=
EXTT20=
EXTT21=
EXTT22=
EXTT23=
EXTT24=
EXTT25=
EXTT26=
PLAYORDER=
